<svg width="20" height="20" viewBox="0 0 20 20" fill="none" xmlns="http://www.w3.org/2000/svg">
<path d="M18.1246 10.6767C17.9918 12.2205 17.4209 13.6942 16.479 14.9244C15.5371 16.1547 14.2634 17.0904 12.8078 17.6214C11.3522 18.1524 9.77524 18.2566 8.26242 17.9218C6.74959 17.587 5.36386 16.8271 4.26825 15.7315C3.17263 14.6359 2.41272 13.2501 2.07792 11.7373C1.74311 10.2245 1.84734 8.64751 2.37834 7.19191C2.90934 5.73631 3.84502 4.46265 5.0753 3.52076C6.30558 2.57888 7.77927 2.00796 9.323 1.87517C9.40508 1.8684 9.48769 1.87786 9.56611 1.90301C9.64453 1.92817 9.71722 1.96852 9.78005 2.02177C9.84287 2.07502 9.8946 2.14012 9.93226 2.21336C9.96993 2.28659 9.9928 2.36653 9.99957 2.44861C10.0063 2.53068 9.99688 2.61329 9.97172 2.69171C9.94657 2.77013 9.90622 2.84283 9.85297 2.90565C9.79972 2.96848 9.73462 3.0202 9.66138 3.05786C9.58814 3.09553 9.50821 3.1184 9.42613 3.12517C8.11956 3.23743 6.87223 3.72054 5.8309 4.51764C4.78958 5.31475 3.99758 6.39269 3.5481 7.62464C3.09862 8.85659 3.01036 10.1913 3.2937 11.4717C3.57703 12.7521 4.22018 13.925 5.14748 14.8523C6.07477 15.7796 7.24762 16.4227 8.52803 16.706C9.80844 16.9894 11.1431 16.9011 12.3751 16.4516C13.607 16.0022 14.685 15.2102 15.4821 14.1688C16.2792 13.1275 16.7623 11.8802 16.8746 10.5736C16.8882 10.4078 16.9672 10.2543 17.0941 10.1468C17.221 10.0392 17.3854 9.98649 17.5511 10.0002C17.7169 10.0138 17.8704 10.0928 17.978 10.2197C18.0855 10.3466 18.1382 10.511 18.1246 10.6767ZM9.37457 5.62517V10.0002C9.37457 10.1659 9.44042 10.3249 9.55763 10.4421C9.67484 10.5593 9.83381 10.6252 9.99957 10.6252H14.3746C14.5403 10.6252 14.6993 10.5593 14.8165 10.4421C14.9337 10.3249 14.9996 10.1659 14.9996 10.0002C14.9996 9.83441 14.9337 9.67544 14.8165 9.55823C14.6993 9.44102 14.5403 9.37517 14.3746 9.37517H10.6246V5.62517C10.6246 5.45941 10.5587 5.30044 10.4415 5.18323C10.3243 5.06602 10.1653 5.00017 9.99957 5.00017C9.83381 5.00017 9.67484 5.06602 9.55763 5.18323C9.44042 5.30044 9.37457 5.45941 9.37457 5.62517ZM12.4996 3.75017C12.685 3.75017 12.8662 3.69519 13.0204 3.59217C13.1746 3.48916 13.2947 3.34274 13.3657 3.17144C13.4367 3.00013 13.4552 2.81163 13.4191 2.62977C13.3829 2.44792 13.2936 2.28087 13.1625 2.14976C13.0314 2.01865 12.8643 1.92936 12.6825 1.89318C12.5006 1.85701 12.3121 1.87558 12.1408 1.94653C11.9695 2.01749 11.8231 2.13765 11.7201 2.29182C11.6171 2.44599 11.5621 2.62725 11.5621 2.81267C11.5621 3.06131 11.6608 3.29977 11.8367 3.47558C12.0125 3.6514 12.2509 3.75017 12.4996 3.75017ZM15.3121 5.62517C15.4975 5.62517 15.6787 5.57019 15.8329 5.46717C15.9871 5.36416 16.1072 5.21774 16.1782 5.04644C16.2492 4.87513 16.2677 4.68663 16.2316 4.50477C16.1954 4.32292 16.1061 4.15587 15.975 4.02476C15.8439 3.89365 15.6768 3.80436 15.495 3.76818C15.3131 3.73201 15.1246 3.75058 14.9533 3.82153C14.782 3.89249 14.6356 4.01265 14.5326 4.16682C14.4296 4.32099 14.3746 4.50225 14.3746 4.68767C14.3746 4.93631 14.4733 5.17477 14.6492 5.35058C14.825 5.5264 15.0634 5.62517 15.3121 5.62517ZM17.1871 8.43767C17.3725 8.43767 17.5537 8.38269 17.7079 8.27967C17.8621 8.17666 17.9822 8.03024 18.0532 7.85894C18.1242 7.68763 18.1427 7.49913 18.1066 7.31727C18.0704 7.13542 17.9811 6.96837 17.85 6.83726C17.7189 6.70615 17.5518 6.61686 17.37 6.58068C17.1881 6.54451 16.9996 6.56308 16.8283 6.63403C16.657 6.70499 16.5106 6.82515 16.4076 6.97932C16.3046 7.13349 16.2496 7.31475 16.2496 7.50017C16.2496 7.74881 16.3483 7.98727 16.5242 8.16308C16.7 8.3389 16.9384 8.43767 17.1871 8.43767Z" fill="#999999"/>
</svg>
