<svg width="20" height="20" viewBox="0 0 20 20" fill="none" xmlns="http://www.w3.org/2000/svg">
<path d="M16.8752 6.9375V5.625C16.8752 4.7962 16.546 4.00134 15.9599 3.41529C15.3739 2.82924 14.579 2.5 13.7502 2.5H6.2502C5.4214 2.5 4.62655 2.82924 4.04049 3.41529C3.45444 4.00134 3.1252 4.7962 3.1252 5.625V6.9375C2.41877 7.08095 1.78366 7.46421 1.32747 8.02234C0.871278 8.58047 0.62207 9.27915 0.62207 10C0.62207 10.7208 0.871278 11.4195 1.32747 11.9777C1.78366 12.5358 2.41877 12.9191 3.1252 13.0625V15.625C3.1252 15.9565 3.2569 16.2745 3.49132 16.5089C3.72574 16.7433 4.04368 16.875 4.3752 16.875H15.6252C15.9567 16.875 16.2747 16.7433 16.5091 16.5089C16.7435 16.2745 16.8752 15.9565 16.8752 15.625V13.0625C17.5816 12.9191 18.2167 12.5358 18.6729 11.9777C19.1291 11.4195 19.3783 10.7208 19.3783 10C19.3783 9.27915 19.1291 8.58047 18.6729 8.02234C18.2167 7.46421 17.5816 7.08095 16.8752 6.9375ZM6.2502 3.75H13.7502C14.2475 3.75 14.7244 3.94754 15.076 4.29917C15.4277 4.65081 15.6252 5.12772 15.6252 5.625V6.9375C14.9198 7.08253 14.286 7.46633 13.8306 8.02419C13.3752 8.58205 13.1261 9.27986 13.1252 10H6.8752C6.87432 9.27986 6.62519 8.58205 6.16979 8.02419C5.71439 7.46633 5.08058 7.08253 4.3752 6.9375V5.625C4.3752 5.12772 4.57275 4.65081 4.92438 4.29917C5.27601 3.94754 5.75292 3.75 6.2502 3.75ZM16.2807 11.875H16.2502C16.0844 11.875 15.9255 11.9408 15.8083 12.0581C15.6911 12.1753 15.6252 12.3342 15.6252 12.5V15.625H4.3752V12.5C4.3752 12.3342 4.30935 12.1753 4.19214 12.0581C4.07493 11.9408 3.91596 11.875 3.7502 11.875H3.71973C3.35025 11.869 2.99078 11.7539 2.68647 11.5443C2.38216 11.3347 2.14659 11.0398 2.00934 10.6967C1.87208 10.3536 1.83927 9.97757 1.91502 9.61589C1.99077 9.2542 2.17171 8.92296 2.43511 8.66378C2.6985 8.4046 3.03261 8.22902 3.39547 8.15911C3.75833 8.0892 4.13376 8.12807 4.4746 8.27083C4.81543 8.4136 5.10649 8.65389 5.3112 8.96154C5.51591 9.26919 5.62515 9.63047 5.6252 10V13.125C5.6252 13.2908 5.69105 13.4497 5.80826 13.5669C5.92547 13.6842 6.08444 13.75 6.2502 13.75C6.41596 13.75 6.57493 13.6842 6.69214 13.5669C6.80935 13.4497 6.8752 13.2908 6.8752 13.125V11.25H13.1252V13.125C13.1252 13.2908 13.1911 13.4497 13.3083 13.5669C13.4255 13.6842 13.5844 13.75 13.7502 13.75C13.916 13.75 14.0749 13.6842 14.1921 13.5669C14.3094 13.4497 14.3752 13.2908 14.3752 13.125V10C14.3753 9.63047 14.4845 9.26919 14.6892 8.96154C14.8939 8.65389 15.185 8.4136 15.5258 8.27083C15.8667 8.12807 16.2421 8.0892 16.6049 8.15911C16.9678 8.22902 17.3019 8.4046 17.5653 8.66378C17.8287 8.92296 18.0096 9.2542 18.0854 9.61589C18.1611 9.97757 18.1283 10.3536 17.9911 10.6967C17.8538 11.0398 17.6182 11.3347 17.3139 11.5443C17.0096 11.7539 16.6502 11.869 16.2807 11.875Z" fill="#999999"/>
</svg>
