<svg width="20" height="20" viewBox="0 0 20 20" fill="none" xmlns="http://www.w3.org/2000/svg">
<path d="M9.99967 11.6668C10.9201 11.6668 11.6663 10.9206 11.6663 10.0002C11.6663 9.07969 10.9201 8.3335 9.99967 8.3335C9.0792 8.3335 8.33301 9.07969 8.33301 10.0002C8.33301 10.9206 9.0792 11.6668 9.99967 11.6668Z" fill="#999999"/>
<path d="M3.33366 11.6668C4.25413 11.6668 5.00033 10.9206 5.00033 10.0002C5.00033 9.07969 4.25413 8.3335 3.33366 8.3335C2.41318 8.3335 1.66699 9.07969 1.66699 10.0002C1.66699 10.9206 2.41318 11.6668 3.33366 11.6668Z" fill="#999999"/>
<path d="M16.6667 11.6668C17.5871 11.6668 18.3333 10.9206 18.3333 10.0002C18.3333 9.07969 17.5871 8.3335 16.6667 8.3335C15.7462 8.3335 15 9.07969 15 10.0002C15 10.9206 15.7462 11.6668 16.6667 11.6668Z" fill="#999999"/>
</svg>
