<svg width="20" height="20" viewBox="0 0 20 20" fill="none" xmlns="http://www.w3.org/2000/svg">
<path d="M12.1492 1.93815C12.0441 1.88694 11.9268 1.86623 11.8105 1.87839C11.6942 1.89054 11.5836 1.93507 11.4914 2.0069L6.03516 6.24987H2.5C2.16848 6.24987 1.85054 6.38157 1.61612 6.61599C1.3817 6.85041 1.25 7.16835 1.25 7.49987V12.4999C1.25 12.8314 1.3817 13.1493 1.61612 13.3838C1.85054 13.6182 2.16848 13.7499 2.5 13.7499H6.03516L11.4914 17.9928C11.5837 18.0646 11.6944 18.1091 11.8107 18.1211C11.927 18.1331 12.0444 18.1123 12.1495 18.0609C12.2545 18.0096 12.3431 17.9298 12.405 17.8306C12.467 17.7314 12.4999 17.6168 12.5 17.4999V2.49987C12.5 2.38279 12.4671 2.26805 12.4051 2.16874C12.3431 2.06942 12.2544 1.98953 12.1492 1.93815ZM2.5 7.49987H5.625V12.4999H2.5V7.49987ZM11.25 16.2217L6.875 12.8194V7.18034L11.25 3.778V16.2217ZM19.1922 11.4327C19.3095 11.55 19.3753 11.709 19.3753 11.8749C19.3753 12.0407 19.3095 12.1998 19.1922 12.3171C19.0749 12.4343 18.9159 12.5002 18.75 12.5002C18.5841 12.5002 18.4251 12.4343 18.3078 12.3171L16.875 10.8835L15.4422 12.3171C15.3249 12.4343 15.1659 12.5002 15 12.5002C14.8341 12.5002 14.6751 12.4343 14.5578 12.3171C14.4405 12.1998 14.3747 12.0407 14.3747 11.8749C14.3747 11.709 14.4405 11.55 14.5578 11.4327L15.9914 9.99987L14.5578 8.56706C14.4405 8.44979 14.3747 8.29073 14.3747 8.12487C14.3747 7.95902 14.4405 7.79996 14.5578 7.68269C14.6751 7.56541 14.8341 7.49953 15 7.49953C15.1659 7.49953 15.3249 7.56541 15.4422 7.68269L16.875 9.11628L18.3078 7.68269C18.4251 7.56541 18.5841 7.49953 18.75 7.49953C18.9159 7.49953 19.0749 7.56541 19.1922 7.68269C19.3095 7.79996 19.3753 7.95902 19.3753 8.12487C19.3753 8.29073 19.3095 8.44979 19.1922 8.56706L17.7586 9.99987L19.1922 11.4327Z" fill="#999999"/>
</svg>
