<svg width="20" height="20" viewBox="0 0 20 20" fill="none" xmlns="http://www.w3.org/2000/svg">
<path d="M12.1492 1.93815C12.0441 1.88694 11.9268 1.86623 11.8105 1.87839C11.6942 1.89054 11.5836 1.93507 11.4914 2.0069L6.03516 6.24987H2.5C2.16848 6.24987 1.85054 6.38157 1.61612 6.61599C1.3817 6.85041 1.25 7.16835 1.25 7.49987V12.4999C1.25 12.8314 1.3817 13.1493 1.61612 13.3838C1.85054 13.6182 2.16848 13.7499 2.5 13.7499H6.03516L11.4914 17.9928C11.5837 18.0646 11.6944 18.1091 11.8107 18.1211C11.927 18.1331 12.0444 18.1123 12.1495 18.0609C12.2545 18.0096 12.3431 17.9298 12.405 17.8306C12.467 17.7314 12.4999 17.6168 12.5 17.4999V2.49987C12.5 2.38279 12.4671 2.26805 12.4051 2.16874C12.3431 2.06942 12.2544 1.98953 12.1492 1.93815ZM2.5 7.49987H5.625V12.4999H2.5V7.49987ZM11.25 16.2217L6.875 12.8194V7.18034L11.25 3.778V16.2217ZM15.4688 7.93425C15.9715 8.50493 16.2488 9.23935 16.2488 9.99987C16.2488 10.7604 15.9715 11.4948 15.4688 12.0655C15.3583 12.1868 15.2046 12.2599 15.0408 12.2689C14.877 12.2779 14.7162 12.2221 14.5932 12.1136C14.4701 12.0051 14.3947 11.8526 14.3831 11.689C14.3715 11.5253 14.4247 11.3637 14.5312 11.2389C14.8327 10.8966 14.999 10.456 14.999 9.99987C14.999 9.5437 14.8327 9.10318 14.5312 8.76081C14.4247 8.63606 14.3715 8.47442 14.3831 8.31078C14.3947 8.14713 14.4701 7.99461 14.5932 7.88611C14.7162 7.77762 14.877 7.72186 15.0408 7.73086C15.2046 7.73987 15.3583 7.81292 15.4688 7.93425ZM19.375 9.99987C19.3759 11.5375 18.8092 13.0214 17.7836 14.1671C17.6723 14.2875 17.518 14.3594 17.3542 14.3672C17.1903 14.3749 17.03 14.318 16.9077 14.2085C16.7855 14.0991 16.7112 13.9461 16.7008 13.7824C16.6905 13.6186 16.7449 13.4574 16.8523 13.3335C17.6722 12.4168 18.1254 11.2301 18.1254 10.0003C18.1254 8.77044 17.6722 7.58375 16.8523 6.66706C16.7961 6.60617 16.7525 6.53469 16.7241 6.45679C16.6957 6.37888 16.6831 6.29611 16.687 6.21329C16.691 6.13047 16.7113 6.04926 16.7469 5.97439C16.7826 5.89951 16.8327 5.83248 16.8945 5.77718C16.9563 5.72188 17.0284 5.67942 17.1068 5.65229C17.1851 5.62515 17.2681 5.61387 17.3508 5.61911C17.4336 5.62435 17.5145 5.646 17.5888 5.6828C17.6631 5.7196 17.7293 5.77082 17.7836 5.83347C18.8095 6.97864 19.3762 8.46239 19.375 9.99987Z" fill="#999999"/>
</svg>
